<svg xmlns="http://www.w3.org/2000/svg" viewBox="0 0 1600 900">
  <defs>
    <linearGradient id="sky" x1="0" y1="0" x2="0" y2="1">
      <stop offset="0" stop-color="#114A9A"/>
      <stop offset="1" stop-color="#0A2B59"/>
    </linearGradient>
    <radialGradient id="glow" cx="20%" cy="10%" r="70%">
      <stop offset="0" stop-color="#D6B25E" stop-opacity="0.55"/>
      <stop offset="1" stop-color="#D6B25E" stop-opacity="0"/>
    </radialGradient>
  </defs>

  <rect width="1600" height="900" fill="url(#sky)"/>
  <rect width="1600" height="900" fill="url(#glow)"/>
  <path d="M0 640C260 560 460 720 760 650s520-220 840-120v370H0z" fill="rgba(255,255,255,0.10)"/>
  <path d="M0 700c270-120 520 60 820-10s480-260 780-180v390H0z" fill="rgba(255,255,255,0.08)"/>

  <g transform="translate(220,240)">
    <circle cx="200" cy="220" r="80" fill="rgba(255,255,255,0.18)"/>
    <circle cx="200" cy="220" r="48" fill="rgba(255,255,255,0.22)"/>
    <circle cx="200" cy="220" r="12" fill="white"/>
  </g>

  <g transform="translate(560,260)">
    <circle cx="200" cy="220" r="80" fill="rgba(255,255,255,0.18)"/>
    <circle cx="200" cy="220" r="48" fill="rgba(255,255,255,0.22)"/>
    <circle cx="200" cy="220" r="12" fill="white"/>
  </g>

  <g transform="translate(900,250)">
    <circle cx="200" cy="220" r="80" fill="rgba(255,255,255,0.18)"/>
    <circle cx="200" cy="220" r="48" fill="rgba(255,255,255,0.22)"/>
    <circle cx="200" cy="220" r="12" fill="white"/>
  </g>

  <g fill="white" opacity="0.95" font-family="ui-sans-serif,system-ui" font-weight="800">
    <text x="90" y="110" font-size="46">WBSA</text>
    <text x="90" y="165" font-size="34" opacity="0.9">Wood Buffalo Somali Association</text>
    <text x="90" y="220" font-size="22" opacity="0.85">Fort McMurray • Community • Support • Advocacy</text>
  </g>

  <g transform="translate(1100,620)">
    <rect x="0" y="0" width="420" height="210" rx="26" fill="rgba(255,255,255,0.12)" stroke="rgba(255,255,255,0.18)"/>
    <path d="M70 150c34-70 76-106 132-106s98 36 132 106" fill="none" stroke="white" stroke-width="12" stroke-linecap="round"/>
    <circle cx="118" cy="98" r="8" fill="white"/>
    <circle cx="202" cy="98" r="8" fill="white"/>
    <circle cx="286" cy="98" r="8" fill="white"/>
  </g>
</svg>
